<svg xmlns="http://www.w3.org/2000/svg" xmlns:xlink="http://www.w3.org/1999/xlink" version="1.1" width="640" height="480" viewBox="0 0 640 480" xml:space="preserve">
<g transform="matrix(0.03 0 0 0.03 274.76 163.55)"  >
<path style="stroke: rgb(0,0,0); stroke-width: 0; stroke-dasharray: none; stroke-linecap: butt; stroke-dashoffset: 0; stroke-linejoin: miter; stroke-miterlimit: 4; fill: rgb(0,0,0); fill-rule: nonzero; opacity: 1;"  transform=" translate(-255.95, -254.82)" d="M 239.1 6.3 l -208 78 c -18.7 7 -31.1 25 -31.1 45 v 225.1 c 0 18.2 10.3 34.8 26.5 42.9 l 208 104 c 13.5 6.8 29.4 6.8 42.9 0 l 208 -104 c 16.3 -8.1 26.5 -24.8 26.5 -42.9 V 129.3 c 0 -20 -12.4 -37.9 -31.1 -44.9 l -208 -78 C 262 2.2 250 2.2 239.1 6.3 z M 256 68.4 l 192 72 v 1.1 l -192 78 l -192 -78 v -1.1 l 192 -72 z m 32 356 V 275.5 l 160 -65 v 133.9 l -160 80 z" stroke-linecap="round" />
</g>
<g transform="matrix(0.03 0 0 0.03 283.35 150.21)"  >
<path style="stroke: rgb(0,0,0); stroke-width: 0; stroke-dasharray: none; stroke-linecap: butt; stroke-dashoffset: 0; stroke-linejoin: miter; stroke-miterlimit: 4; fill: rgb(0,0,0); fill-rule: nonzero; opacity: 1;"  transform=" translate(-255.95, -254.82)" d="M 239.1 6.3 l -208 78 c -18.7 7 -31.1 25 -31.1 45 v 225.1 c 0 18.2 10.3 34.8 26.5 42.9 l 208 104 c 13.5 6.8 29.4 6.8 42.9 0 l 208 -104 c 16.3 -8.1 26.5 -24.8 26.5 -42.9 V 129.3 c 0 -20 -12.4 -37.9 -31.1 -44.9 l -208 -78 C 262 2.2 250 2.2 239.1 6.3 z M 256 68.4 l 192 72 v 1.1 l -192 78 l -192 -78 v -1.1 l 192 -72 z m 32 356 V 275.5 l 160 -65 v 133.9 l -160 80 z" stroke-linecap="round" />
</g>
<g transform="matrix(0.03 0 0 0.03 292.05 163.56)"  >
<path style="stroke: rgb(0,0,0); stroke-width: 0; stroke-dasharray: none; stroke-linecap: butt; stroke-dashoffset: 0; stroke-linejoin: miter; stroke-miterlimit: 4; fill: rgb(0,0,0); fill-rule: nonzero; opacity: 1;"  transform=" translate(-255.95, -254.82)" d="M 239.1 6.3 l -208 78 c -18.7 7 -31.1 25 -31.1 45 v 225.1 c 0 18.2 10.3 34.8 26.5 42.9 l 208 104 c 13.5 6.8 29.4 6.8 42.9 0 l 208 -104 c 16.3 -8.1 26.5 -24.8 26.5 -42.9 V 129.3 c 0 -20 -12.4 -37.9 -31.1 -44.9 l -208 -78 C 262 2.2 250 2.2 239.1 6.3 z M 256 68.4 l 192 72 v 1.1 l -192 78 l -192 -78 v -1.1 l 192 -72 z m 32 356 V 275.5 l 160 -65 v 133.9 l -160 80 z" stroke-linecap="round" />
</g>
</svg>