<?xml version="1.0" encoding="UTF-8" standalone="no"?>
<!DOCTYPE svg PUBLIC "-//W3C//DTD SVG 1.1//EN" "http://www.w3.org/Graphics/SVG/1.1/DTD/svg11.dtd">
<svg xmlns="http://www.w3.org/2000/svg" version="1.1" viewBox="0.00 0.00 916.00 980.00">
<g stroke-width="2.00" fill="none" stroke-linecap="butt">
<path stroke="#6e6f6f" stroke-opacity="0.996" vector-effect="non-scaling-stroke" d="
  M 753.18 528.26
  Q 752.53 510.53 753.02 492.78
  C 753.08 490.55 753.80 490.44 755.75 490.25
  Q 767.87 489.06 796.51 484.82
  C 833.08 479.40 867.04 469.44 902.48 457.00
  C 912.58 453.46 915.82 444.95 915.01 434.75
  C 908.74 355.87 899.82 276.13 880.65 198.96
  Q 871.92 163.83 857.49 130.65
  C 849.52 112.34 839.96 97.11 824.18 84.32
  C 800.59 65.20 769.84 51.66 741.52 41.18
  Q 678.10 17.72 612.40 1.73
  C 608.91 0.88 604.24 0.65 601.31 1.08
  C 570.07 5.57 530.78 11.12 496.21 14.34
  C 437.54 19.81 385.56 10.72 319.25 2.02
  C 313.75 1.30 308.94 0.82 303.34 2.13
  Q 238.19 17.27 176.74 40.48
  Q 150.87 50.25 124.96 63.20
  C 108.43 71.46 91.37 82.36 80.26 94.78
  C 60.75 116.60 48.47 152.53 40.90 179.68
  C 25.98 233.13 16.75 288.38 10.15 343.43
  Q 4.82 387.88 1.44 432.51
  C -0.16 453.66 8.14 454.86 24.94 460.82
  Q 62.41 474.12 101.41 481.67
  C 119.28 485.13 137.83 487.45 156.07 489.62
  Q 159.44 490.02 162.80 490.73
  Q 163.30 490.83 163.40 491.33
  Q 163.70 492.81 163.70 494.31
  Q 163.77 695.58 164.09 896.85
  Q 164.09 896.93 164.00 896.96
  Q 163.83 897.00 163.75 897.04"
/>
<path stroke="#6e6f6f" stroke-opacity="0.996" vector-effect="non-scaling-stroke" d="
  M 752.96 558.00
  L 752.44 559.43
  Q 752.27 559.89 752.27 560.37
  Q 751.95 707.15 751.97 853.94
  Q 751.97 866.45 750.95 910.44
  C 750.81 916.61 751.24 923.99 744.78 928.29
  C 730.25 937.95 710.65 944.01 694.02 949.08
  C 634.60 967.17 569.51 977.78 509.00 978.84
  Q 483.96 979.27 458.92 980.00"
/>
<path stroke="#6e6f6f" stroke-opacity="0.996" vector-effect="non-scaling-stroke" d="
  M 448.19 980.00
  Q 425.24 978.74 402.25 979.07
  Q 390.98 979.23 346.68 976.35
  C 292.58 972.84 238.83 965.16 186.51 950.72
  C 180.68 949.11 169.88 946.28 166.48 939.75
  Q 165.08 937.05 164.95 930.53
  Q 164.64 914.39 164.38 898.27
  Q 164.37 898.17 164.28 898.12
  L 164.04 898.00"
/>
<path stroke="#6e6f6f" stroke-opacity="0.996" vector-effect="non-scaling-stroke" d="
  M 767.06 196.81
  C 778.05 196.91 788.44 207.34 783.25 218.22
  C 780.03 224.97 773.76 231.87 770.45 238.40
  C 759.27 260.48 754.92 288.22 754.00 312.26
  C 752.16 359.84 752.93 407.69 753.02 455.38
  Q 753.02 456.75 754.39 456.75
  C 762.08 456.78 769.68 456.43 777.58 455.35
  C 812.51 450.57 847.30 441.99 880.64 431.29
  Q 882.15 430.81 882.07 429.22
  Q 881.43 416.38 880.33 404.57
  C 873.61 332.00 863.72 258.58 844.16 188.23
  C 840.18 173.95 835.12 158.15 828.81 143.96
  C 822.08 128.84 814.99 116.24 801.95 107.05
  Q 783.18 93.82 758.14 82.76
  C 714.91 63.66 669.56 49.53 622.76 37.46
  Q 620.78 36.94 618.46 37.12
  Q 617.95 37.16 617.75 37.62
  C 607.63 61.22 587.76 81.96 566.88 96.07
  Q 536.88 116.33 501.99 125.07
  C 433.85 142.12 353.62 116.40 311.02 59.89
  C 306.08 53.34 302.20 45.22 297.94 37.72
  Q 297.68 37.26 297.15 37.15
  Q 295.37 36.79 293.97 37.16
  Q 251.79 48.42 210.44 62.42
  C 179.05 73.05 147.86 85.85 119.66 103.41
  Q 103.44 113.52 94.56 129.30
  Q 83.48 148.98 75.27 176.31
  C 60.34 225.97 51.33 277.65 44.51 329.00
  C 39.27 368.54 35.56 397.58 34.23 430.02
  Q 34.19 430.93 35.06 431.21
  C 71.56 442.74 109.75 452.51 148.01 456.48
  Q 152.69 456.97 163.26 456.67
  Q 163.86 456.65 163.88 456.06
  Q 164.08 451.28 163.75 440.50
  C 162.57 402.63 163.16 353.54 161.53 304.55
  C 160.62 277.38 153.98 245.65 136.04 224.20
  C 128.55 215.26 131.25 203.39 141.35 198.51
  C 159.62 189.68 176.25 226.85 180.81 238.69
  C 189.54 261.38 193.20 285.01 193.69 309.25
  C 194.07 328.43 194.94 347.67 194.96 366.81
  C 195.17 550.95 195.14 735.07 195.30 919.05
  A 1.12 1.11 -82.1 0 0 196.10 920.12
  Q 212.75 924.98 229.71 928.21
  Q 294.27 940.53 359.78 945.53
  Q 368.99 946.23 379.75 946.55
  C 432.84 948.13 471.79 948.25 523.81 946.44
  Q 534.44 946.07 543.76 945.13
  Q 591.49 940.28 638.47 930.58
  C 659.67 926.20 680.77 919.65 701.29 912.80
  C 707.72 910.66 713.55 908.21 719.49 905.46
  A 1.68 1.67 -11.3 0 0 720.45 904.03
  Q 720.76 898.14 720.76 892.00
  Q 720.77 623.28 721.09 354.56
  Q 721.12 332.32 722.77 299.24
  C 724.28 268.82 732.41 236.41 749.51 210.78
  C 753.16 205.30 761.01 196.76 767.06 196.81"
/>
<path stroke="#6e6f6f" stroke-opacity="0.996" vector-effect="non-scaling-stroke" d="
  M 441.76 48.01
  C 438.30 47.92 434.92 48.00 431.52 47.69
  Q 386.97 43.55 342.63 37.43
  C 340.78 37.18 338.88 37.24 337.06 37.25
  A 1.12 1.12 0.0 0 0 336.13 38.98
  C 345.69 53.62 357.55 63.27 372.69 72.65
  C 390.41 83.63 412.82 94.36 433.75 96.50
  Q 457.24 98.91 482.23 96.28
  Q 498.00 94.63 514.54 87.50
  C 530.64 80.56 545.80 72.80 558.83 61.79
  C 562.71 58.51 579.97 42.77 580.38 38.44
  A 1.06 1.03 -89.9 0 0 579.26 37.28
  C 551.34 40.01 523.57 43.94 495.65 46.72
  C 477.56 48.53 459.78 48.45 441.76 48.01"
/>
<path stroke="#6e6f6f" stroke-opacity="0.996" vector-effect="non-scaling-stroke" d="
  M 506.50 979.79
  L 495.19 980.00"
/>
<path stroke="#6e6f6f" stroke-opacity="0.996" vector-effect="non-scaling-stroke" d="
  M 407.94 980.00
  L 401.25 979.79"
/>
</g>
<path fill="#dddede" fill-opacity="0.992" d="
  M 607.81 0.00
  L 608.56 0.00
  Q 682.36 17.36 752.97 44.93
  C 776.12 53.97 799.53 64.93 819.56 79.44
  C 841.68 95.47 854.53 118.35 864.05 143.49
  C 878.36 181.27 887.79 221.45 894.73 261.20
  Q 904.85 319.19 910.64 377.76
  Q 912.65 398.10 914.67 418.43
  C 915.05 422.26 914.99 426.65 915.36 430.78
  C 916.41 442.17 915.24 453.77 903.81 457.58
  C 889.55 462.34 874.53 467.65 860.91 471.59
  C 825.66 481.79 791.88 486.82 754.70 491.12
  Q 754.17 491.18 754.11 491.71
  Q 753.84 494.43 753.91 496.00
  Q 754.61 512.13 753.18 528.26
  Q 752.53 510.53 753.02 492.78
  C 753.08 490.55 753.80 490.44 755.75 490.25
  Q 767.87 489.06 796.51 484.82
  C 833.08 479.40 867.04 469.44 902.48 457.00
  C 912.58 453.46 915.82 444.95 915.01 434.75
  C 908.74 355.87 899.82 276.13 880.65 198.96
  Q 871.92 163.83 857.49 130.65
  C 849.52 112.34 839.96 97.11 824.18 84.32
  C 800.59 65.20 769.84 51.66 741.52 41.18
  Q 678.10 17.72 612.40 1.73
  C 608.91 0.88 604.24 0.65 601.31 1.08
  C 570.07 5.57 530.78 11.12 496.21 14.34
  C 437.54 19.81 385.56 10.72 319.25 2.02
  C 313.75 1.30 308.94 0.82 303.34 2.13
  Q 238.19 17.27 176.74 40.48
  Q 150.87 50.25 124.96 63.20
  C 108.43 71.46 91.37 82.36 80.26 94.78
  C 60.75 116.60 48.47 152.53 40.90 179.68
  C 25.98 233.13 16.75 288.38 10.15 343.43
  Q 4.82 387.88 1.44 432.51
  C -0.16 453.66 8.14 454.86 24.94 460.82
  Q 62.41 474.12 101.41 481.67
  C 119.28 485.13 137.83 487.45 156.07 489.62
  Q 159.44 490.02 162.80 490.73
  Q 163.30 490.83 163.40 491.33
  Q 163.70 492.81 163.70 494.31
  Q 163.77 695.58 164.09 896.85
  Q 164.09 896.93 164.00 896.96
  Q 163.83 897.00 163.75 897.04
  C 163.37 896.78 163.00 896.29 163.00 895.80
  Q 163.00 693.93 163.00 492.00
  Q 163.00 491.46 162.47 491.39
  Q 144.40 488.90 126.45 486.48
  Q 83.21 480.65 41.68 467.32
  Q 36.08 465.53 18.76 459.71
  C 8.36 456.22 0.28 452.11 0.43 439.55
  C 0.61 424.90 1.98 411.62 3.55 397.86
  C 3.86 395.12 3.87 391.01 4.56 387.64
  C 5.22 384.45 4.67 381.74 5.20 378.74
  Q 5.88 374.96 6.09 371.12
  C 6.25 368.41 7.55 365.26 6.89 361.92
  Q 6.79 361.42 6.95 360.93
  C 8.25 357.01 7.61 353.62 8.61 349.71
  Q 9.10 347.76 9.09 345.74
  C 9.07 342.49 10.21 339.87 10.04 336.58
  C 9.94 334.70 11.15 333.52 11.00 331.78
  C 10.69 328.36 11.76 325.60 11.98 322.15
  C 12.11 320.13 12.95 318.56 12.96 316.57
  C 12.97 314.00 13.73 310.95 13.97 309.15
  Q 20.89 257.34 32.97 206.49
  C 39.41 179.37 47.14 154.01 58.02 129.47
  C 63.86 116.28 71.28 103.05 81.11 92.75
  C 95.20 78.00 113.46 67.50 131.74 58.79
  Q 154.70 47.84 178.52 38.92
  Q 241.12 15.47 306.29 0.55
  C 308.03 0.16 310.30 0.09 312.08 0.31
  Q 356.17 5.88 400.26 11.45
  Q 421.07 14.09 444.16 14.75
  C 464.28 15.34 486.59 14.93 505.25 12.76
  Q 551.63 7.39 597.84 0.72
  C 601.07 0.25 604.44 0.32 607.81 0.00
  Z"
/>
<path fill="#000000" d="
  M 753.18 528.26
  L 752.96 558.00
  L 752.44 559.43
  Q 752.27 559.89 752.27 560.37
  Q 751.95 707.15 751.97 853.94
  Q 751.97 866.45 750.95 910.44
  C 750.81 916.61 751.24 923.99 744.78 928.29
  C 730.25 937.95 710.65 944.01 694.02 949.08
  C 634.60 967.17 569.51 977.78 509.00 978.84
  Q 483.96 979.27 458.92 980.00
  L 448.19 980.00
  Q 425.24 978.74 402.25 979.07
  Q 390.98 979.23 346.68 976.35
  C 292.58 972.84 238.83 965.16 186.51 950.72
  C 180.68 949.11 169.88 946.28 166.48 939.75
  Q 165.08 937.05 164.95 930.53
  Q 164.64 914.39 164.38 898.27
  Q 164.37 898.17 164.28 898.12
  L 164.04 898.00
  L 163.75 897.04
  Q 163.83 897.00 164.00 896.96
  Q 164.09 896.93 164.09 896.85
  Q 163.77 695.58 163.70 494.31
  Q 163.70 492.81 163.40 491.33
  Q 163.30 490.83 162.80 490.73
  Q 159.44 490.02 156.07 489.62
  C 137.83 487.45 119.28 485.13 101.41 481.67
  Q 62.41 474.12 24.94 460.82
  C 8.14 454.86 -0.16 453.66 1.44 432.51
  Q 4.82 387.88 10.15 343.43
  C 16.75 288.38 25.98 233.13 40.90 179.68
  C 48.47 152.53 60.75 116.60 80.26 94.78
  C 91.37 82.36 108.43 71.46 124.96 63.20
  Q 150.87 50.25 176.74 40.48
  Q 238.19 17.27 303.34 2.13
  C 308.94 0.82 313.75 1.30 319.25 2.02
  C 385.56 10.72 437.54 19.81 496.21 14.34
  C 530.78 11.12 570.07 5.57 601.31 1.08
  C 604.24 0.65 608.91 0.88 612.40 1.73
  Q 678.10 17.72 741.52 41.18
  C 769.84 51.66 800.59 65.20 824.18 84.32
  C 839.96 97.11 849.52 112.34 857.49 130.65
  Q 871.92 163.83 880.65 198.96
  C 899.82 276.13 908.74 355.87 915.01 434.75
  C 915.82 444.95 912.58 453.46 902.48 457.00
  C 867.04 469.44 833.08 479.40 796.51 484.82
  Q 767.87 489.06 755.75 490.25
  C 753.80 490.44 753.08 490.55 753.02 492.78
  Q 752.53 510.53 753.18 528.26
  Z
  M 767.06 196.81
  C 778.05 196.91 788.44 207.34 783.25 218.22
  C 780.03 224.97 773.76 231.87 770.45 238.40
  C 759.27 260.48 754.92 288.22 754.00 312.26
  C 752.16 359.84 752.93 407.69 753.02 455.38
  Q 753.02 456.75 754.39 456.75
  C 762.08 456.78 769.68 456.43 777.58 455.35
  C 812.51 450.57 847.30 441.99 880.64 431.29
  Q 882.15 430.81 882.07 429.22
  Q 881.43 416.38 880.33 404.57
  C 873.61 332.00 863.72 258.58 844.16 188.23
  C 840.18 173.95 835.12 158.15 828.81 143.96
  C 822.08 128.84 814.99 116.24 801.95 107.05
  Q 783.18 93.82 758.14 82.76
  C 714.91 63.66 669.56 49.53 622.76 37.46
  Q 620.78 36.94 618.46 37.12
  Q 617.95 37.16 617.75 37.62
  C 607.63 61.22 587.76 81.96 566.88 96.07
  Q 536.88 116.33 501.99 125.07
  C 433.85 142.12 353.62 116.40 311.02 59.89
  C 306.08 53.34 302.20 45.22 297.94 37.72
  Q 297.68 37.26 297.15 37.15
  Q 295.37 36.79 293.97 37.16
  Q 251.79 48.42 210.44 62.42
  C 179.05 73.05 147.86 85.85 119.66 103.41
  Q 103.44 113.52 94.56 129.30
  Q 83.48 148.98 75.27 176.31
  C 60.34 225.97 51.33 277.65 44.51 329.00
  C 39.27 368.54 35.56 397.58 34.23 430.02
  Q 34.19 430.93 35.06 431.21
  C 71.56 442.74 109.75 452.51 148.01 456.48
  Q 152.69 456.97 163.26 456.67
  Q 163.86 456.65 163.88 456.06
  Q 164.08 451.28 163.75 440.50
  C 162.57 402.63 163.16 353.54 161.53 304.55
  C 160.62 277.38 153.98 245.65 136.04 224.20
  C 128.55 215.26 131.25 203.39 141.35 198.51
  C 159.62 189.68 176.25 226.85 180.81 238.69
  C 189.54 261.38 193.20 285.01 193.69 309.25
  C 194.07 328.43 194.94 347.67 194.96 366.81
  C 195.17 550.95 195.14 735.07 195.30 919.05
  A 1.12 1.11 -82.1 0 0 196.10 920.12
  Q 212.75 924.98 229.71 928.21
  Q 294.27 940.53 359.78 945.53
  Q 368.99 946.23 379.75 946.55
  C 432.84 948.13 471.79 948.25 523.81 946.44
  Q 534.44 946.07 543.76 945.13
  Q 591.49 940.28 638.47 930.58
  C 659.67 926.20 680.77 919.65 701.29 912.80
  C 707.72 910.66 713.55 908.21 719.49 905.46
  A 1.68 1.67 -11.3 0 0 720.45 904.03
  Q 720.76 898.14 720.76 892.00
  Q 720.77 623.28 721.09 354.56
  Q 721.12 332.32 722.77 299.24
  C 724.28 268.82 732.41 236.41 749.51 210.78
  C 753.16 205.30 761.01 196.76 767.06 196.81
  Z
  M 441.76 48.01
  C 438.30 47.92 434.92 48.00 431.52 47.69
  Q 386.97 43.55 342.63 37.43
  C 340.78 37.18 338.88 37.24 337.06 37.25
  A 1.12 1.12 0.0 0 0 336.13 38.98
  C 345.69 53.62 357.55 63.27 372.69 72.65
  C 390.41 83.63 412.82 94.36 433.75 96.50
  Q 457.24 98.91 482.23 96.28
  Q 498.00 94.63 514.54 87.50
  C 530.64 80.56 545.80 72.80 558.83 61.79
  C 562.71 58.51 579.97 42.77 580.38 38.44
  A 1.06 1.03 -89.9 0 0 579.26 37.28
  C 551.34 40.01 523.57 43.94 495.65 46.72
  C 477.56 48.53 459.78 48.45 441.76 48.01
  Z"
/>
<path fill="#dddede" fill-opacity="0.992" d="
  M 767.06 196.81
  C 761.01 196.76 753.16 205.30 749.51 210.78
  C 732.41 236.41 724.28 268.82 722.77 299.24
  Q 721.12 332.32 721.09 354.56
  Q 720.77 623.28 720.76 892.00
  Q 720.76 898.14 720.45 904.03
  A 1.68 1.67 -11.3 0 1 719.49 905.46
  C 713.55 908.21 707.72 910.66 701.29 912.80
  C 680.77 919.65 659.67 926.20 638.47 930.58
  Q 591.49 940.28 543.76 945.13
  Q 534.44 946.07 523.81 946.44
  C 471.79 948.25 432.84 948.13 379.75 946.55
  Q 368.99 946.23 359.78 945.53
  Q 294.27 940.53 229.71 928.21
  Q 212.75 924.98 196.10 920.12
  A 1.12 1.11 -82.1 0 1 195.30 919.05
  C 195.14 735.07 195.17 550.95 194.96 366.81
  C 194.94 347.67 194.07 328.43 193.69 309.25
  C 193.20 285.01 189.54 261.38 180.81 238.69
  C 176.25 226.85 159.62 189.68 141.35 198.51
  C 131.25 203.39 128.55 215.26 136.04 224.20
  C 153.98 245.65 160.62 277.38 161.53 304.55
  C 163.16 353.54 162.57 402.63 163.75 440.50
  Q 164.08 451.28 163.88 456.06
  Q 163.86 456.65 163.26 456.67
  Q 152.69 456.97 148.01 456.48
  C 109.75 452.51 71.56 442.74 35.06 431.21
  Q 34.19 430.93 34.23 430.02
  C 35.56 397.58 39.27 368.54 44.51 329.00
  C 51.33 277.65 60.34 225.97 75.27 176.31
  Q 83.48 148.98 94.56 129.30
  Q 103.44 113.52 119.66 103.41
  C 147.86 85.85 179.05 73.05 210.44 62.42
  Q 251.79 48.42 293.97 37.16
  Q 295.37 36.79 297.15 37.15
  Q 297.68 37.26 297.94 37.72
  C 302.20 45.22 306.08 53.34 311.02 59.89
  C 353.62 116.40 433.85 142.12 501.99 125.07
  Q 536.88 116.33 566.88 96.07
  C 587.76 81.96 607.63 61.22 617.75 37.62
  Q 617.95 37.16 618.46 37.12
  Q 620.78 36.94 622.76 37.46
  C 669.56 49.53 714.91 63.66 758.14 82.76
  Q 783.18 93.82 801.95 107.05
  C 814.99 116.24 822.08 128.84 828.81 143.96
  C 835.12 158.15 840.18 173.95 844.16 188.23
  C 863.72 258.58 873.61 332.00 880.33 404.57
  Q 881.43 416.38 882.07 429.22
  Q 882.15 430.81 880.64 431.29
  C 847.30 441.99 812.51 450.57 777.58 455.35
  C 769.68 456.43 762.08 456.78 754.39 456.75
  Q 753.02 456.75 753.02 455.38
  C 752.93 407.69 752.16 359.84 754.00 312.26
  C 754.92 288.22 759.27 260.48 770.45 238.40
  C 773.76 231.87 780.03 224.97 783.25 218.22
  C 788.44 207.34 778.05 196.91 767.06 196.81
  Z
  M 153.25 197.25
  C 160.02 200.56 167.15 210.08 171.16 216.83
  C 193.92 255.20 195.66 299.64 195.07 342.44
  C 195.01 346.98 196.00 352.22 196.00 356.87
  Q 196.00 637.78 196.00 918.44
  A 1.04 1.04 0.0 0 0 196.76 919.44
  C 221.47 926.34 249.60 931.47 272.25 934.74
  C 317.97 941.34 358.79 945.84 402.23 946.20
  C 403.81 946.22 406.03 946.65 408.25 946.67
  Q 467.50 947.17 502.69 946.61
  Q 503.15 946.60 503.67 946.30
  Q 504.07 946.07 504.53 946.07
  C 535.97 946.21 562.30 942.53 595.53 937.67
  Q 653.70 929.14 708.90 909.05
  C 712.50 907.74 715.81 906.11 719.25 904.46
  A 1.32 1.32 0.0 0 0 720.00 903.27
  Q 720.00 630.60 720.00 358.00
  Q 720.00 350.72 720.61 338.01
  C 721.09 328.18 720.43 318.09 721.32 308.33
  Q 721.73 303.76 721.82 301.20
  Q 723.16 258.37 742.66 220.49
  C 748.96 208.24 760.84 189.78 776.10 198.08
  C 786.17 203.56 787.60 213.32 781.53 222.80
  C 777.42 229.21 772.79 235.22 770.07 241.03
  C 760.83 260.78 756.61 284.30 755.19 306.25
  C 754.64 314.76 753.98 323.03 753.99 331.60
  Q 754.00 393.46 754.00 455.35
  Q 754.00 455.90 754.55 455.92
  C 770.79 456.59 788.61 453.20 805.76 449.80
  Q 842.66 442.48 878.50 431.01
  Q 878.97 430.86 879.46 430.97
  Q 881.27 431.39 881.22 429.75
  C 880.74 413.39 878.47 393.78 876.51 375.52
  C 871.12 325.31 863.73 275.27 852.79 225.94
  C 846.35 196.91 838.37 168.23 826.52 141.21
  C 818.23 122.31 807.89 110.82 790.12 100.33
  Q 779.75 94.21 775.92 92.33
  Q 733.28 71.48 688.01 57.24
  C 666.21 50.38 644.24 43.57 621.99 38.31
  Q 620.44 37.95 618.91 37.99
  Q 618.41 38.00 618.20 38.46
  C 614.99 45.32 611.81 52.05 607.36 58.12
  C 576.02 100.88 525.11 126.14 472.82 130.63
  C 417.51 135.37 356.54 112.60 319.14 71.22
  C 310.99 62.19 303.73 51.69 298.77 40.98
  C 296.70 36.50 294.56 37.87 290.26 39.04
  C 240.65 52.55 195.10 66.79 150.44 87.44
  Q 133.06 95.48 117.15 106.14
  C 100.86 117.06 92.16 133.51 84.99 151.75
  Q 77.13 171.75 71.58 192.52
  C 59.09 239.27 50.96 286.89 44.68 334.83
  C 40.22 368.82 36.67 398.51 34.88 430.11
  Q 34.85 430.65 35.37 430.77
  C 36.73 431.10 38.19 431.21 39.36 431.58
  C 74.91 442.56 112.50 452.21 149.51 455.74
  Q 155.22 456.28 162.50 455.91
  Q 163.04 455.88 163.03 455.34
  Q 162.92 434.17 162.67 413.00
  C 162.65 410.99 162.16 409.00 162.15 407.67
  Q 162.01 368.71 161.53 329.75
  C 161.52 328.99 161.23 328.37 161.22 327.74
  C 160.93 308.60 161.21 292.70 157.39 275.66
  C 153.94 260.30 149.56 244.85 140.61 231.97
  C 137.56 227.58 132.93 222.07 131.39 217.59
  C 127.32 205.66 141.51 191.50 153.25 197.25
  Z"
/>
<path fill="#dddede" fill-opacity="0.992" d="
  M 441.76 48.01
  C 459.78 48.45 477.56 48.53 495.65 46.72
  C 523.57 43.94 551.34 40.01 579.26 37.28
  A 1.06 1.03 -89.9 0 1 580.38 38.44
  C 579.97 42.77 562.71 58.51 558.83 61.79
  C 545.80 72.80 530.64 80.56 514.54 87.50
  Q 498.00 94.63 482.23 96.28
  Q 457.24 98.91 433.75 96.50
  C 412.82 94.36 390.41 83.63 372.69 72.65
  C 357.55 63.27 345.69 53.62 336.13 38.98
  A 1.12 1.12 0.0 0 1 337.06 37.25
  C 338.88 37.24 340.78 37.18 342.63 37.43
  Q 386.97 43.55 431.52 47.69
  C 434.92 48.00 438.30 47.92 441.76 48.01
  Z
  M 337.23 38.78
  C 341.38 45.89 348.98 54.21 354.59 58.64
  Q 381.62 80.01 414.29 91.17
  Q 422.13 93.85 428.93 94.85
  C 443.00 96.93 458.00 97.60 472.57 96.29
  C 481.32 95.51 489.26 95.17 497.67 92.55
  Q 523.39 84.57 545.91 70.04
  C 558.67 61.81 569.77 51.13 579.02 39.15
  A 0.66 0.66 0.0 0 0 578.43 38.09
  C 529.26 43.54 479.74 52.25 430.02 48.27
  C 401.28 45.96 369.05 41.98 343.81 38.42
  Q 340.26 37.91 337.66 38.01
  Q 336.80 38.04 337.23 38.78
  Z"
/>
<path fill="#dddede" fill-opacity="0.992" d="
  M 752.96 558.00
  Q 753.04 705.13 752.99 852.26
  Q 752.99 860.01 752.44 872.23
  C 751.74 887.86 752.34 903.36 751.17 918.97
  C 750.49 927.95 741.43 932.08 734.26 935.27
  Q 717.11 942.88 699.18 948.43
  C 637.24 967.60 570.78 978.70 506.50 979.79
  L 495.19 980.00
  L 458.92 980.00
  Q 483.96 979.27 509.00 978.84
  C 569.51 977.78 634.60 967.17 694.02 949.08
  C 710.65 944.01 730.25 937.95 744.78 928.29
  C 751.24 923.99 750.81 916.61 750.95 910.44
  Q 751.97 866.45 751.97 853.94
  Q 751.95 707.15 752.27 560.37
  Q 752.27 559.89 752.44 559.43
  L 752.96 558.00
  Z"
/>
<path fill="#dddede" fill-opacity="0.992" d="
  M 164.04 898.00
  L 164.28 898.12
  Q 164.37 898.17 164.38 898.27
  Q 164.64 914.39 164.95 930.53
  Q 165.08 937.05 166.48 939.75
  C 169.88 946.28 180.68 949.11 186.51 950.72
  C 238.83 965.16 292.58 972.84 346.68 976.35
  Q 390.98 979.23 402.25 979.07
  Q 425.24 978.74 448.19 980.00
  L 407.94 980.00
  L 401.25 979.79
  C 331.60 977.81 262.64 971.36 195.41 954.17
  Q 181.80 950.69 172.45 946.56
  C 164.89 943.22 164.11 937.44 164.01 929.24
  Q 163.85 914.98 163.64 900.76
  Q 163.62 899.33 164.04 898.00
  Z"
/>
<path fill="#000000" d="
  M 401.25 979.79
  L 407.94 980.00
  L 401.19 980.00
  Q 401.22 979.90 401.25 979.79
  Z"
/>
<path fill="#000000" d="
  M 506.50 979.79
  Q 506.47 979.90 506.44 980.00
  L 495.19 980.00
  L 506.50 979.79
  Z"
/>
</svg>
