<?xml version="1.0" encoding="UTF-8" standalone="no"?>
<!DOCTYPE svg PUBLIC "-//W3C//DTD SVG 1.1//EN" "http://www.w3.org/Graphics/SVG/1.1/DTD/svg11.dtd">
<svg xmlns="http://www.w3.org/2000/svg" version="1.1" viewBox="0.00 0.00 936.00 1000.00">
<g stroke-width="2.00" fill="none" stroke-linecap="butt">
<path stroke="#808080" vector-effect="non-scaling-stroke" d="
  M 172.75 500.95
  A 0.62 0.60 4.4 0 1 173.28 501.55
  C 173.18 648.05 172.03 794.65 174.60 941.07
  C 174.78 951.53 179.33 955.45 188.74 958.53
  Q 202.65 963.07 220.18 967.12
  C 277.14 980.31 335.70 986.51 394.07 988.65
  Q 453.74 990.84 513.44 989.41
  C 581.83 987.77 650.88 976.84 715.93 955.42
  C 724.54 952.59 758.32 941.49 760.06 932.01
  Q 761.24 925.61 761.45 912.94
  C 761.66 900.63 762.02 888.03 762.07 876.03
  Q 762.89 688.88 763.00 501.65
  A 0.80 0.79 86.3 0 1 763.69 500.86
  Q 779.01 498.91 794.52 496.88
  C 833.64 491.73 870.28 482.10 908.48 468.74
  C 922.73 463.76 925.98 457.94 924.87 442.76
  C 919.05 362.75 909.24 281.91 889.47 204.06
  Q 880.64 169.27 866.05 136.46
  Q 850.72 101.97 818.33 82.67
  Q 789.48 65.48 759.67 54.09
  Q 692.00 28.24 619.44 10.67
  Q 616.82 10.04 614.13 10.43
  Q 565.67 17.54 516.99 22.92
  Q 471.75 27.92 430.01 23.99
  C 397.31 20.91 359.57 15.29 321.72 10.98
  C 318.22 10.58 315.24 11.34 311.92 12.12
  Q 254.01 25.86 198.02 46.05
  C 169.62 56.28 141.88 68.01 115.69 83.94
  Q 88.39 100.54 74.01 128.53
  Q 60.14 155.52 50.86 188.71
  C 28.48 268.77 19.14 351.90 11.66 434.43
  C 10.34 448.94 8.42 461.37 23.68 467.02
  C 59.01 480.10 94.88 490.03 131.38 495.20
  Q 152.11 498.14 172.75 500.95"
/>
<path stroke="#808080" vector-effect="non-scaling-stroke" d="
  M 58.29 313.75
  L 58.04 316.25"
/>
<path stroke="#154366" vector-effect="non-scaling-stroke" d="
  M 58.04 316.25
  L 57.54 319.50"
/>
<path stroke="#808080" vector-effect="non-scaling-stroke" d="
  M 57.54 319.50
  L 56.79 323.50"
/>
<path stroke="#154366" vector-effect="non-scaling-stroke" d="
  M 56.79 323.50
  L 50.29 373.50"
/>
<path stroke="#808080" vector-effect="non-scaling-stroke" d="
  M 50.29 373.50
  L 50.00 377.21"
/>
<path stroke="#154366" vector-effect="non-scaling-stroke" d="
  M 50.00 377.21
  Q 47.08 399.29 45.29 421.50"
/>
<path stroke="#808080" vector-effect="non-scaling-stroke" d="
  M 45.29 421.50
  L 45.04 427.50"
/>
<path stroke="#154366" vector-effect="non-scaling-stroke" d="
  M 45.04 427.50
  L 44.81 440.38
  Q 44.80 440.91 45.31 441.08
  Q 83.08 453.05 121.90 461.00
  Q 147.07 466.16 172.56 466.88
  A 1.21 1.21 0.0 0 0 173.80 465.65
  L 172.68 412.01"
/>
<path stroke="#808080" vector-effect="non-scaling-stroke" d="
  M 172.68 412.01
  Q 173.15 390.11 172.54 368.25"
/>
<path stroke="#154366" vector-effect="non-scaling-stroke" d="
  M 172.54 368.25
  L 171.69 335.02"
/>
<path stroke="#808080" vector-effect="non-scaling-stroke" d="
  M 171.69 335.02
  L 171.54 318.25"
/>
<path stroke="#154366" vector-effect="non-scaling-stroke" d="
  M 171.54 318.25
  Q 171.33 283.93 157.76 252.74
  C 154.90 246.17 150.45 240.20 146.21 234.33
  C 140.41 226.32 139.36 218.28 147.40 211.13
  C 161.95 198.19 175.54 218.32 181.57 229.19
  C 194.47 252.47 201.22 277.89 203.04 303.98"
/>
<path stroke="#808080" vector-effect="non-scaling-stroke" d="
  M 203.04 303.98
  L 203.29 311.25"
/>
<path stroke="#154366" vector-effect="non-scaling-stroke" d="
  M 203.29 311.25
  L 204.34 322.95"
/>
<path stroke="#808080" vector-effect="non-scaling-stroke" d="
  M 204.34 322.95
  L 204.29 339.25"
/>
<path stroke="#154366" vector-effect="non-scaling-stroke" d="
  M 204.29 339.25
  L 204.98 367.96"
/>
<path stroke="#808080" vector-effect="non-scaling-stroke" d="
  M 204.98 367.96
  L 205.29 429.75"
/>
<path stroke="#154366" vector-effect="non-scaling-stroke" d="
  M 205.29 429.75
  L 205.47 929.33
  Q 205.47 929.91 206.03 930.07
  C 231.20 937.12 261.09 942.77 289.00 946.29"
/>
<path stroke="#808080" vector-effect="non-scaling-stroke" d="
  M 289.00 946.29
  L 294.25 946.96"
/>
<path stroke="#154366" vector-effect="non-scaling-stroke" d="
  M 294.25 946.96
  Q 333.43 952.84 372.96 955.50"
/>
<path stroke="#808080" vector-effect="non-scaling-stroke" d="
  M 372.96 955.50
  Q 376.84 956.16 380.83 955.70"
/>
<path stroke="#154366" vector-effect="non-scaling-stroke" d="
  M 380.83 955.70
  L 395.75 956.54"
/>
<path stroke="#808080" vector-effect="non-scaling-stroke" d="
  M 395.75 956.54
  L 410.54 956.69"
/>
<path stroke="#154366" vector-effect="non-scaling-stroke" d="
  M 410.54 956.69
  C 445.72 958.41 482.22 958.20 515.74 956.73"
/>
<path stroke="#808080" vector-effect="non-scaling-stroke" d="
  M 515.74 956.73
  L 528.50 956.54"
/>
<path stroke="#154366" vector-effect="non-scaling-stroke" d="
  M 528.50 956.54
  L 540.75 955.96"
/>
<path stroke="#808080" vector-effect="non-scaling-stroke" d="
  M 540.75 955.96
  L 546.79 955.50"
/>
<path stroke="#154366" vector-effect="non-scaling-stroke" d="
  M 546.79 955.50
  Q 550.22 955.40 551.75 955.24
  Q 591.42 951.10 630.67 944.05
  C 660.00 938.79 689.02 930.63 717.06 920.55
  Q 723.67 918.17 729.61 915.12
  A 1.15 1.13 -13.8 0 0 730.23 914.11
  L 730.71 403.50"
/>
<path stroke="#808080" vector-effect="non-scaling-stroke" d="
  M 730.71 403.50
  C 730.77 398.83 731.73 359.80 730.71 358.75"
/>
<path stroke="#154366" vector-effect="non-scaling-stroke" d="
  M 730.71 358.75
  L 731.54 334.50"
/>
<path stroke="#808080" vector-effect="non-scaling-stroke" d="
  M 731.54 334.50
  L 731.85 318.98"
/>
<path stroke="#154366" vector-effect="non-scaling-stroke" d="
  M 731.85 318.98
  Q 732.97 298.49 734.78 287.01
  Q 738.47 263.70 749.43 238.83
  C 755.11 225.95 770.75 195.44 789.20 211.32
  C 800.24 220.82 791.76 231.64 785.51 240.62
  C 773.04 258.55 767.87 282.97 765.54 304.75"
/>
<path stroke="#808080" vector-effect="non-scaling-stroke" d="
  M 765.54 304.75
  L 765.04 309.00"
/>
<path stroke="#154366" vector-effect="non-scaling-stroke" d="
  M 765.04 309.00
  L 764.29 317.25"
/>
<path stroke="#808080" vector-effect="non-scaling-stroke" d="
  M 764.29 317.25
  L 764.04 322.25"
/>
<path stroke="#154366" vector-effect="non-scaling-stroke" d="
  M 764.04 322.25
  Q 763.21 332.87 763.47 343.49"
/>
<path stroke="#808080" vector-effect="non-scaling-stroke" d="
  M 763.47 343.49
  Q 762.66 361.99 763.22 380.52"
/>
<path stroke="#154366" vector-effect="non-scaling-stroke" d="
  M 763.22 380.52
  L 762.97 465.59
  Q 762.97 466.92 764.30 466.88
  Q 784.65 466.31 803.78 462.86
  Q 848.13 454.86 891.12 441.00
  Q 891.64 440.84 891.66 440.30
  Q 891.97 432.77 890.96 425.25"
/>
<path stroke="#808080" vector-effect="non-scaling-stroke" d="
  M 890.96 425.25
  L 890.54 419.25"
/>
<path stroke="#154366" vector-effect="non-scaling-stroke" d="
  M 890.54 419.25
  L 889.96 412.75"
/>
<path stroke="#808080" vector-effect="non-scaling-stroke" d="
  M 889.96 412.75
  L 889.54 408.50"
/>
<path stroke="#154366" vector-effect="non-scaling-stroke" d="
  M 889.54 408.50
  L 889.00 403.21"
/>
<path stroke="#808080" vector-effect="non-scaling-stroke" d="
  M 889.00 403.21
  L 888.46 398.00"
/>
<path stroke="#154366" vector-effect="non-scaling-stroke" d="
  M 888.46 398.00
  L 887.96 393.25"
/>
<path stroke="#808080" vector-effect="non-scaling-stroke" d="
  M 887.96 393.25
  L 887.71 389.50"
/>
<path stroke="#154366" vector-effect="non-scaling-stroke" d="
  M 887.71 389.50
  L 886.96 384.25"
/>
<path stroke="#808080" vector-effect="non-scaling-stroke" d="
  M 886.96 384.25
  L 886.54 379.75"
/>
<path stroke="#154366" vector-effect="non-scaling-stroke" d="
  M 886.54 379.75
  L 886.00 375.46"
/>
<path stroke="#808080" vector-effect="non-scaling-stroke" d="
  M 886.00 375.46
  L 885.71 371.50"
/>
<path stroke="#154366" vector-effect="non-scaling-stroke" d="
  M 885.71 371.50
  L 879.96 327.75"
/>
<path stroke="#808080" vector-effect="non-scaling-stroke" d="
  M 879.96 327.75
  L 879.54 324.75"
/>
<path stroke="#154366" vector-effect="non-scaling-stroke" d="
  M 879.54 324.75
  C 872.65 275.35 863.25 225.44 847.89 177.92
  Q 842.15 160.14 833.70 143.54
  C 824.57 125.61 811.83 115.71 794.02 105.97
  C 764.02 89.56 731.11 76.99 698.60 66.57
  Q 665.37 55.90 631.50 47.46"
/>
<path stroke="#808080" vector-effect="non-scaling-stroke" d="
  M 631.50 47.46
  Q 629.33 46.20 628.04 48.00"
/>
<path stroke="#154366" vector-effect="non-scaling-stroke" d="
  M 628.04 48.00
  C 624.94 53.55 622.24 59.73 618.81 64.66
  C 587.61 109.53 535.57 135.29 481.75 140.04"
/>
<path stroke="#808080" vector-effect="non-scaling-stroke" d="
  M 481.75 140.04
  L 477.00 140.29"
/>
<path stroke="#154366" vector-effect="non-scaling-stroke" d="
  M 477.00 140.29
  C 418.08 142.79 355.46 116.76 319.85 68.48
  C 315.00 61.90 312.18 53.63 307.05 47.27
  Q 306.71 46.84 306.18 46.97
  C 280.60 52.96 255.20 61.20 230.23 69.31
  Q 189.81 82.43 151.63 101.19
  Q 137.85 107.97 126.16 115.91
  C 103.95 131.00 92.89 161.37 85.23 187.25
  C 72.59 229.97 64.27 273.49 58.29 313.75"
/>
<path stroke="#94c3e6" vector-effect="non-scaling-stroke" d="
  M 477.00 140.29
  Q 479.48 141.60 481.75 140.04"
/>
<path stroke="#94c3e6" vector-effect="non-scaling-stroke" d="
  M 628.04 48.00
  L 631.50 47.46"
/>
<path stroke="#94c3e6" vector-effect="non-scaling-stroke" d="
  M 879.54 324.75
  Q 878.20 326.58 879.96 327.75"
/>
<path stroke="#94c3e6" vector-effect="non-scaling-stroke" d="
  M 885.71 371.50
  Q 884.20 373.57 886.00 375.46"
/>
<path stroke="#94c3e6" vector-effect="non-scaling-stroke" d="
  M 886.54 379.75
  Q 885.09 382.18 886.96 384.25"
/>
<path stroke="#94c3e6" vector-effect="non-scaling-stroke" d="
  M 887.71 389.50
  Q 886.23 391.41 887.96 393.25"
/>
<path stroke="#94c3e6" vector-effect="non-scaling-stroke" d="
  M 888.46 398.00
  Q 887.19 400.81 889.00 403.21"
/>
<path stroke="#94c3e6" vector-effect="non-scaling-stroke" d="
  M 889.54 408.50
  Q 888.39 410.89 889.96 412.75"
/>
<path stroke="#94c3e6" vector-effect="non-scaling-stroke" d="
  M 890.54 419.25
  Q 889.01 422.43 890.96 425.25"
/>
<path stroke="#94c3e6" vector-effect="non-scaling-stroke" d="
  M 763.22 380.52
  Q 764.76 362.01 763.47 343.49"
/>
<path stroke="#94c3e6" vector-effect="non-scaling-stroke" d="
  M 764.04 322.25
  Q 765.56 319.77 764.29 317.25"
/>
<path stroke="#94c3e6" vector-effect="non-scaling-stroke" d="
  M 765.04 309.00
  Q 766.65 307.04 765.54 304.75"
/>
<path stroke="#94c3e6" vector-effect="non-scaling-stroke" d="
  M 731.85 318.98
  Q 730.21 326.70 731.54 334.50"
/>
<path stroke="#94c3e6" vector-effect="non-scaling-stroke" d="
  M 730.71 358.75
  C 730.34 359.00 730.02 359.45 730.02 359.92
  Q 730.39 380.83 730.14 401.75
  Q 730.14 402.21 730.32 402.62
  L 730.71 403.50"
/>
<path stroke="#94c3e6" vector-effect="non-scaling-stroke" d="
  M 546.79 955.50
  Q 543.60 954.16 540.75 955.96"
/>
<path stroke="#94c3e6" vector-effect="non-scaling-stroke" d="
  M 528.50 956.54
  Q 522.08 955.37 515.74 956.73"
/>
<path stroke="#94c3e6" vector-effect="non-scaling-stroke" d="
  M 410.54 956.69
  Q 403.18 955.33 395.75 956.54"
/>
<path stroke="#94c3e6" vector-effect="non-scaling-stroke" d="
  M 380.83 955.70
  Q 376.94 954.15 372.96 955.50"
/>
<path stroke="#94c3e6" vector-effect="non-scaling-stroke" d="
  M 294.25 946.96
  Q 291.91 945.26 289.00 946.29"
/>
<path stroke="#94c3e6" vector-effect="non-scaling-stroke" d="
  M 205.29 429.75
  C 206.61 411.14 205.48 391.40 206.08 368.75
  Q 206.09 368.09 204.98 367.96"
/>
<path stroke="#94c3e6" vector-effect="non-scaling-stroke" d="
  M 204.29 339.25
  Q 205.56 331.08 204.34 322.95"
/>
<path stroke="#94c3e6" vector-effect="non-scaling-stroke" d="
  M 203.29 311.25
  Q 204.88 307.52 203.04 303.98"
/>
<path stroke="#94c3e6" vector-effect="non-scaling-stroke" d="
  M 171.54 318.25
  Q 170.26 326.63 171.69 335.02"
/>
<path stroke="#94c3e6" vector-effect="non-scaling-stroke" d="
  M 172.54 368.25
  Q 171.17 390.14 172.68 412.01"
/>
<path stroke="#94c3e6" vector-effect="non-scaling-stroke" d="
  M 45.04 427.50
  Q 46.89 424.56 45.29 421.50"
/>
<path stroke="#94c3e6" vector-effect="non-scaling-stroke" d="
  M 50.00 377.21
  Q 51.73 375.48 50.29 373.50"
/>
<path stroke="#94c3e6" vector-effect="non-scaling-stroke" d="
  M 56.79 323.50
  Q 58.85 321.88 57.54 319.50"
/>
<path stroke="#94c3e6" vector-effect="non-scaling-stroke" d="
  M 58.04 316.25
  Q 59.39 315.05 58.29 313.75"
/>
<path stroke="#154366" vector-effect="non-scaling-stroke" d="
  M 346.19 48.28
  Q 349.85 54.73 354.46 59.50"
/>
<path stroke="#808080" vector-effect="non-scaling-stroke" d="
  M 354.46 59.50
  Q 357.97 64.23 362.74 67.73"
/>
<path stroke="#154366" vector-effect="non-scaling-stroke" d="
  M 362.74 67.73
  Q 367.32 72.06 373.44 76.31
  C 395.54 91.64 422.18 104.89 449.25 106.75
  Q 472.13 108.32 492.31 106.31
  C 513.59 104.20 535.94 93.38 553.89 82.24
  C 568.07 73.44 579.71 62.72 589.84 49.66
  Q 591.61 47.39 588.74 47.64
  L 584.00 48.04"
/>
<path stroke="#808080" vector-effect="non-scaling-stroke" d="
  M 584.00 48.04
  L 580.00 48.29"
/>
<path stroke="#154366" vector-effect="non-scaling-stroke" d="
  M 580.00 48.29
  L 533.21 54.00"
/>
<path stroke="#808080" vector-effect="non-scaling-stroke" d="
  M 533.21 54.00
  L 529.21 54.50"
/>
<path stroke="#154366" vector-effect="non-scaling-stroke" d="
  M 529.21 54.50
  L 523.75 55.21"
/>
<path stroke="#808080" vector-effect="non-scaling-stroke" d="
  M 523.75 55.21
  L 519.75 55.54"
/>
<path stroke="#154366" vector-effect="non-scaling-stroke" d="
  M 519.75 55.54
  L 515.00 56.04"
/>
<path stroke="#808080" vector-effect="non-scaling-stroke" d="
  M 515.00 56.04
  L 510.71 56.50"
/>
<path stroke="#154366" vector-effect="non-scaling-stroke" d="
  M 510.71 56.50
  L 504.25 57.29"
/>
<path stroke="#808080" vector-effect="non-scaling-stroke" d="
  M 504.25 57.29
  Q 501.23 56.90 498.25 57.54"
/>
<path stroke="#154366" vector-effect="non-scaling-stroke" d="
  M 498.25 57.54
  L 491.03 58.31"
/>
<path stroke="#808080" vector-effect="non-scaling-stroke" d="
  M 491.03 58.31
  L 482.50 58.29"
/>
<path stroke="#154366" vector-effect="non-scaling-stroke" d="
  M 482.50 58.29
  Q 467.36 59.19 452.28 58.31"
/>
<path stroke="#808080" vector-effect="non-scaling-stroke" d="
  M 452.28 58.31
  L 444.93 58.15"
/>
<path stroke="#154366" vector-effect="non-scaling-stroke" d="
  M 444.93 58.15
  L 436.25 57.29"
/>
<path stroke="#808080" vector-effect="non-scaling-stroke" d="
  M 436.25 57.29
  L 431.75 57.04"
/>
<path stroke="#154366" vector-effect="non-scaling-stroke" d="
  M 431.75 57.04
  L 426.25 56.29"
/>
<path stroke="#808080" vector-effect="non-scaling-stroke" d="
  M 426.25 56.29
  L 421.75 56.04"
/>
<path stroke="#154366" vector-effect="non-scaling-stroke" d="
  M 421.75 56.04
  L 416.25 55.46"
/>
<path stroke="#808080" vector-effect="non-scaling-stroke" d="
  M 416.25 55.46
  L 411.75 55.04"
/>
<path stroke="#154366" vector-effect="non-scaling-stroke" d="
  M 411.75 55.04
  L 407.75 54.54"
/>
<path stroke="#808080" vector-effect="non-scaling-stroke" d="
  M 407.75 54.54
  L 403.75 54.04"
/>
<path stroke="#154366" vector-effect="non-scaling-stroke" d="
  M 403.75 54.04
  L 398.25 53.29"
/>
<path stroke="#808080" vector-effect="non-scaling-stroke" d="
  M 398.25 53.29
  L 394.75 53.04"
/>
<path stroke="#154366" vector-effect="non-scaling-stroke" d="
  M 394.75 53.04
  L 365.75 49.29"
/>
<path stroke="#808080" vector-effect="non-scaling-stroke" d="
  M 365.75 49.29
  L 362.75 49.04"
/>
<path stroke="#154366" vector-effect="non-scaling-stroke" d="
  M 362.75 49.04
  L 358.75 48.54"
/>
<path stroke="#808080" vector-effect="non-scaling-stroke" d="
  M 358.75 48.54
  L 354.75 48.04"
/>
<path stroke="#154366" vector-effect="non-scaling-stroke" d="
  M 354.75 48.04
  L 351.25 47.54"
/>
<path stroke="#808080" vector-effect="non-scaling-stroke" d="
  M 351.25 47.54
  Q 348.21 46.31 346.19 48.28"
/>
<path stroke="#94c3e6" vector-effect="non-scaling-stroke" d="
  M 351.25 47.54
  L 346.19 48.28"
/>
<path stroke="#94c3e6" vector-effect="non-scaling-stroke" d="
  M 354.75 48.04
  Q 356.52 49.81 358.75 48.54"
/>
<path stroke="#94c3e6" vector-effect="non-scaling-stroke" d="
  M 362.75 49.04
  Q 364.21 50.90 365.75 49.29"
/>
<path stroke="#94c3e6" vector-effect="non-scaling-stroke" d="
  M 394.75 53.04
  Q 396.50 54.97 398.25 53.29"
/>
<path stroke="#94c3e6" vector-effect="non-scaling-stroke" d="
  M 403.75 54.04
  Q 405.51 55.83 407.75 54.54"
/>
<path stroke="#94c3e6" vector-effect="non-scaling-stroke" d="
  M 411.75 55.04
  Q 413.82 56.73 416.25 55.46"
/>
<path stroke="#94c3e6" vector-effect="non-scaling-stroke" d="
  M 421.75 56.04
  Q 423.94 58.03 426.25 56.29"
/>
<path stroke="#94c3e6" vector-effect="non-scaling-stroke" d="
  M 431.75 57.04
  Q 433.92 59.05 436.25 57.29"
/>
<path stroke="#94c3e6" vector-effect="non-scaling-stroke" d="
  M 444.93 58.15
  Q 448.58 60.04 452.28 58.31"
/>
<path stroke="#94c3e6" vector-effect="non-scaling-stroke" d="
  M 482.50 58.29
  Q 486.73 59.50 491.03 58.31"
/>
<path stroke="#94c3e6" vector-effect="non-scaling-stroke" d="
  M 498.25 57.54
  Q 501.31 58.60 504.25 57.29"
/>
<path stroke="#94c3e6" vector-effect="non-scaling-stroke" d="
  M 510.71 56.50
  Q 513.07 57.46 515.00 56.04"
/>
<path stroke="#94c3e6" vector-effect="non-scaling-stroke" d="
  M 519.75 55.54
  Q 521.89 56.58 523.75 55.21"
/>
<path stroke="#94c3e6" vector-effect="non-scaling-stroke" d="
  M 529.21 54.50
  Q 531.40 55.53 533.21 54.00"
/>
<path stroke="#94c3e6" vector-effect="non-scaling-stroke" d="
  M 580.00 48.29
  Q 582.08 49.67 584.00 48.04"
/>
<path stroke="#94c3e6" vector-effect="non-scaling-stroke" d="
  M 362.74 67.73
  Q 359.13 63.07 354.46 59.50"
/>
</g>
<path fill="#ffffff" d="
  M 318.31 0.00
  L 321.55 0.00
  Q 325.60 1.07 329.76 1.48
  C 355.77 4.10 381.79 8.00 407.75 11.24
  C 447.84 16.24 488.03 16.27 528.50 11.25
  Q 570.55 6.04 596.86 2.36
  C 598.23 2.17 600.58 2.16 602.18 1.73
  C 605.71 0.77 608.85 1.05 612.31 0.00
  L 618.81 0.00
  Q 691.91 17.31 762.12 43.98
  Q 791.18 55.02 818.24 70.32
  C 840.21 82.75 857.18 97.98 869.49 120.19
  C 884.22 146.76 893.97 178.56 901.21 207.95
  C 917.56 274.27 927.01 342.81 932.91 412.51
  Q 933.15 415.26 933.58 417.34
  C 934.26 420.54 933.66 423.50 934.23 426.62
  C 935.12 431.46 934.92 435.99 935.31 440.82
  C 936.60 456.54 932.86 470.95 917.57 476.60
  Q 904.79 481.32 875.94 490.20
  C 844.51 499.88 809.28 505.53 774.83 509.95
  A 0.97 0.97 0.0 0 0 773.99 510.90
  C 773.73 534.36 773.00 557.68 773.00 581.00
  Q 773.01 717.34 772.98 853.68
  C 772.97 876.16 772.12 898.70 771.65 921.18
  C 771.32 937.14 767.83 944.47 754.01 951.53
  C 743.01 957.14 729.70 962.06 716.75 966.14
  Q 617.15 997.57 512.44 1000.00
  L 419.19 1000.00
  C 350.26 998.32 281.94 992.72 215.31 976.56
  C 200.97 973.08 189.56 970.50 178.54 965.72
  C 165.42 960.03 164.26 949.61 164.03 935.40
  C 161.67 793.88 162.99 652.18 163.01 510.68
  A 0.76 0.75 3.0 0 0 162.33 509.93
  C 144.10 507.80 125.59 505.40 107.74 501.78
  Q 66.06 493.33 20.44 477.08
  C -2.49 468.90 0.03 450.40 1.55 430.93
  C 6.89 362.14 15.83 293.06 30.91 225.68
  C 38.51 191.73 48.06 157.07 63.40 126.14
  C 73.16 106.46 85.89 90.89 104.35 78.62
  C 130.85 61.02 160.85 48.61 190.64 37.77
  Q 253.31 14.97 318.31 0.00
  Z
  M 172.75 500.95
  A 0.62 0.60 4.4 0 1 173.28 501.55
  C 173.18 648.05 172.03 794.65 174.60 941.07
  C 174.78 951.53 179.33 955.45 188.74 958.53
  Q 202.65 963.07 220.18 967.12
  C 277.14 980.31 335.70 986.51 394.07 988.65
  Q 453.74 990.84 513.44 989.41
  C 581.83 987.77 650.88 976.84 715.93 955.42
  C 724.54 952.59 758.32 941.49 760.06 932.01
  Q 761.24 925.61 761.45 912.94
  C 761.66 900.63 762.02 888.03 762.07 876.03
  Q 762.89 688.88 763.00 501.65
  A 0.80 0.79 86.3 0 1 763.69 500.86
  Q 779.01 498.91 794.52 496.88
  C 833.64 491.73 870.28 482.10 908.48 468.74
  C 922.73 463.76 925.98 457.94 924.87 442.76
  C 919.05 362.75 909.24 281.91 889.47 204.06
  Q 880.64 169.27 866.05 136.46
  Q 850.72 101.97 818.33 82.67
  Q 789.48 65.48 759.67 54.09
  Q 692.00 28.24 619.44 10.67
  Q 616.82 10.04 614.13 10.43
  Q 565.67 17.54 516.99 22.92
  Q 471.75 27.92 430.01 23.99
  C 397.31 20.91 359.57 15.29 321.72 10.98
  C 318.22 10.58 315.24 11.34 311.92 12.12
  Q 254.01 25.86 198.02 46.05
  C 169.62 56.28 141.88 68.01 115.69 83.94
  Q 88.39 100.54 74.01 128.53
  Q 60.14 155.52 50.86 188.71
  C 28.48 268.77 19.14 351.90 11.66 434.43
  C 10.34 448.94 8.42 461.37 23.68 467.02
  C 59.01 480.10 94.88 490.03 131.38 495.20
  Q 152.11 498.14 172.75 500.95
  Z"
/>
<path fill="#000000" d="
  M 172.75 500.95
  Q 152.11 498.14 131.38 495.20
  C 94.88 490.03 59.01 480.10 23.68 467.02
  C 8.42 461.37 10.34 448.94 11.66 434.43
  C 19.14 351.90 28.48 268.77 50.86 188.71
  Q 60.14 155.52 74.01 128.53
  Q 88.39 100.54 115.69 83.94
  C 141.88 68.01 169.62 56.28 198.02 46.05
  Q 254.01 25.86 311.92 12.12
  C 315.24 11.34 318.22 10.58 321.72 10.98
  C 359.57 15.29 397.31 20.91 430.01 23.99
  Q 471.75 27.92 516.99 22.92
  Q 565.67 17.54 614.13 10.43
  Q 616.82 10.04 619.44 10.67
  Q 692.00 28.24 759.67 54.09
  Q 789.48 65.48 818.33 82.67
  Q 850.72 101.97 866.05 136.46
  Q 880.64 169.27 889.47 204.06
  C 909.24 281.91 919.05 362.75 924.87 442.76
  C 925.98 457.94 922.73 463.76 908.48 468.74
  C 870.28 482.10 833.64 491.73 794.52 496.88
  Q 779.01 498.91 763.69 500.86
  A 0.80 0.79 86.3 0 0 763.00 501.65
  Q 762.89 688.88 762.07 876.03
  C 762.02 888.03 761.66 900.63 761.45 912.94
  Q 761.24 925.61 760.06 932.01
  C 758.32 941.49 724.54 952.59 715.93 955.42
  C 650.88 976.84 581.83 987.77 513.44 989.41
  Q 453.74 990.84 394.07 988.65
  C 335.70 986.51 277.14 980.31 220.18 967.12
  Q 202.65 963.07 188.74 958.53
  C 179.33 955.45 174.78 951.53 174.60 941.07
  C 172.03 794.65 173.18 648.05 173.28 501.55
  A 0.62 0.60 4.4 0 0 172.75 500.95
  Z
  M 58.29 313.75
  L 58.04 316.25
  L 57.54 319.50
  L 56.79 323.50
  L 50.29 373.50
  L 50.00 377.21
  Q 47.08 399.29 45.29 421.50
  L 45.04 427.50
  L 44.81 440.38
  Q 44.80 440.91 45.31 441.08
  Q 83.08 453.05 121.90 461.00
  Q 147.07 466.16 172.56 466.88
  A 1.21 1.21 0.0 0 0 173.80 465.65
  L 172.68 412.01
  Q 173.15 390.11 172.54 368.25
  L 171.69 335.02
  L 171.54 318.25
  Q 171.33 283.93 157.76 252.74
  C 154.90 246.17 150.45 240.20 146.21 234.33
  C 140.41 226.32 139.36 218.28 147.40 211.13
  C 161.95 198.19 175.54 218.32 181.57 229.19
  C 194.47 252.47 201.22 277.89 203.04 303.98
  L 203.29 311.25
  L 204.34 322.95
  L 204.29 339.25
  L 204.98 367.96
  L 205.29 429.75
  L 205.47 929.33
  Q 205.47 929.91 206.03 930.07
  C 231.20 937.12 261.09 942.77 289.00 946.29
  L 294.25 946.96
  Q 333.43 952.84 372.96 955.50
  Q 376.84 956.16 380.83 955.70
  L 395.75 956.54
  L 410.54 956.69
  C 445.72 958.41 482.22 958.20 515.74 956.73
  L 528.50 956.54
  L 540.75 955.96
  L 546.79 955.50
  Q 550.22 955.40 551.75 955.24
  Q 591.42 951.10 630.67 944.05
  C 660.00 938.79 689.02 930.63 717.06 920.55
  Q 723.67 918.17 729.61 915.12
  A 1.15 1.13 -13.8 0 0 730.23 914.11
  L 730.71 403.50
  C 730.77 398.83 731.73 359.80 730.71 358.75
  L 731.54 334.50
  L 731.85 318.98
  Q 732.97 298.49 734.78 287.01
  Q 738.47 263.70 749.43 238.83
  C 755.11 225.95 770.75 195.44 789.20 211.32
  C 800.24 220.82 791.76 231.64 785.51 240.62
  C 773.04 258.55 767.87 282.97 765.54 304.75
  L 765.04 309.00
  L 764.29 317.25
  L 764.04 322.25
  Q 763.21 332.87 763.47 343.49
  Q 762.66 361.99 763.22 380.52
  L 762.97 465.59
  Q 762.97 466.92 764.30 466.88
  Q 784.65 466.31 803.78 462.86
  Q 848.13 454.86 891.12 441.00
  Q 891.64 440.84 891.66 440.30
  Q 891.97 432.77 890.96 425.25
  L 890.54 419.25
  L 889.96 412.75
  L 889.54 408.50
  L 889.00 403.21
  L 888.46 398.00
  L 887.96 393.25
  L 887.71 389.50
  L 886.96 384.25
  L 886.54 379.75
  L 886.00 375.46
  L 885.71 371.50
  L 879.96 327.75
  L 879.54 324.75
  C 872.65 275.35 863.25 225.44 847.89 177.92
  Q 842.15 160.14 833.70 143.54
  C 824.57 125.61 811.83 115.71 794.02 105.97
  C 764.02 89.56 731.11 76.99 698.60 66.57
  Q 665.37 55.90 631.50 47.46
  Q 629.33 46.20 628.04 48.00
  C 624.94 53.55 622.24 59.73 618.81 64.66
  C 587.61 109.53 535.57 135.29 481.75 140.04
  L 477.00 140.29
  C 418.08 142.79 355.46 116.76 319.85 68.48
  C 315.00 61.90 312.18 53.63 307.05 47.27
  Q 306.71 46.84 306.18 46.97
  C 280.60 52.96 255.20 61.20 230.23 69.31
  Q 189.81 82.43 151.63 101.19
  Q 137.85 107.97 126.16 115.91
  C 103.95 131.00 92.89 161.37 85.23 187.25
  C 72.59 229.97 64.27 273.49 58.29 313.75
  Z
  M 346.19 48.28
  Q 349.85 54.73 354.46 59.50
  Q 357.97 64.23 362.74 67.73
  Q 367.32 72.06 373.44 76.31
  C 395.54 91.64 422.18 104.89 449.25 106.75
  Q 472.13 108.32 492.31 106.31
  C 513.59 104.20 535.94 93.38 553.89 82.24
  C 568.07 73.44 579.71 62.72 589.84 49.66
  Q 591.61 47.39 588.74 47.64
  L 584.00 48.04
  L 580.00 48.29
  L 533.21 54.00
  L 529.21 54.50
  L 523.75 55.21
  L 519.75 55.54
  L 515.00 56.04
  L 510.71 56.50
  L 504.25 57.29
  Q 501.23 56.90 498.25 57.54
  L 491.03 58.31
  L 482.50 58.29
  Q 467.36 59.19 452.28 58.31
  L 444.93 58.15
  L 436.25 57.29
  L 431.75 57.04
  L 426.25 56.29
  L 421.75 56.04
  L 416.25 55.46
  L 411.75 55.04
  L 407.75 54.54
  L 403.75 54.04
  L 398.25 53.29
  L 394.75 53.04
  L 365.75 49.29
  L 362.75 49.04
  L 358.75 48.54
  L 354.75 48.04
  L 351.25 47.54
  Q 348.21 46.31 346.19 48.28
  Z"
/>
<path fill="#2986cc" d="
  M 477.00 140.29
  Q 479.48 141.60 481.75 140.04
  C 535.57 135.29 587.61 109.53 618.81 64.66
  C 622.24 59.73 624.94 53.55 628.04 48.00
  L 631.50 47.46
  Q 665.37 55.90 698.60 66.57
  C 731.11 76.99 764.02 89.56 794.02 105.97
  C 811.83 115.71 824.57 125.61 833.70 143.54
  Q 842.15 160.14 847.89 177.92
  C 863.25 225.44 872.65 275.35 879.54 324.75
  Q 878.20 326.58 879.96 327.75
  L 885.71 371.50
  Q 884.20 373.57 886.00 375.46
  L 886.54 379.75
  Q 885.09 382.18 886.96 384.25
  L 887.71 389.50
  Q 886.23 391.41 887.96 393.25
  L 888.46 398.00
  Q 887.19 400.81 889.00 403.21
  L 889.54 408.50
  Q 888.39 410.89 889.96 412.75
  L 890.54 419.25
  Q 889.01 422.43 890.96 425.25
  Q 891.97 432.77 891.66 440.30
  Q 891.64 440.84 891.12 441.00
  Q 848.13 454.86 803.78 462.86
  Q 784.65 466.31 764.30 466.88
  Q 762.97 466.92 762.97 465.59
  L 763.22 380.52
  Q 764.76 362.01 763.47 343.49
  Q 763.21 332.87 764.04 322.25
  Q 765.56 319.77 764.29 317.25
  L 765.04 309.00
  Q 766.65 307.04 765.54 304.75
  C 767.87 282.97 773.04 258.55 785.51 240.62
  C 791.76 231.64 800.24 220.82 789.20 211.32
  C 770.75 195.44 755.11 225.95 749.43 238.83
  Q 738.47 263.70 734.78 287.01
  Q 732.97 298.49 731.85 318.98
  Q 730.21 326.70 731.54 334.50
  L 730.71 358.75
  C 730.34 359.00 730.02 359.45 730.02 359.92
  Q 730.39 380.83 730.14 401.75
  Q 730.14 402.21 730.32 402.62
  L 730.71 403.50
  L 730.23 914.11
  A 1.15 1.13 -13.8 0 1 729.61 915.12
  Q 723.67 918.17 717.06 920.55
  C 689.02 930.63 660.00 938.79 630.67 944.05
  Q 591.42 951.10 551.75 955.24
  Q 550.22 955.40 546.79 955.50
  Q 543.60 954.16 540.75 955.96
  L 528.50 956.54
  Q 522.08 955.37 515.74 956.73
  C 482.22 958.20 445.72 958.41 410.54 956.69
  Q 403.18 955.33 395.75 956.54
  L 380.83 955.70
  Q 376.94 954.15 372.96 955.50
  Q 333.43 952.84 294.25 946.96
  Q 291.91 945.26 289.00 946.29
  C 261.09 942.77 231.20 937.12 206.03 930.07
  Q 205.47 929.91 205.47 929.33
  L 205.29 429.75
  C 206.61 411.14 205.48 391.40 206.08 368.75
  Q 206.09 368.09 204.98 367.96
  L 204.29 339.25
  Q 205.56 331.08 204.34 322.95
  L 203.29 311.25
  Q 204.88 307.52 203.04 303.98
  C 201.22 277.89 194.47 252.47 181.57 229.19
  C 175.54 218.32 161.95 198.19 147.40 211.13
  C 139.36 218.28 140.41 226.32 146.21 234.33
  C 150.45 240.20 154.90 246.17 157.76 252.74
  Q 171.33 283.93 171.54 318.25
  Q 170.26 326.63 171.69 335.02
  L 172.54 368.25
  Q 171.17 390.14 172.68 412.01
  L 173.80 465.65
  A 1.21 1.21 0.0 0 1 172.56 466.88
  Q 147.07 466.16 121.90 461.00
  Q 83.08 453.05 45.31 441.08
  Q 44.80 440.91 44.81 440.38
  L 45.04 427.50
  Q 46.89 424.56 45.29 421.50
  Q 47.08 399.29 50.00 377.21
  Q 51.73 375.48 50.29 373.50
  L 56.79 323.50
  Q 58.85 321.88 57.54 319.50
  L 58.04 316.25
  Q 59.39 315.05 58.29 313.75
  C 64.27 273.49 72.59 229.97 85.23 187.25
  C 92.89 161.37 103.95 131.00 126.16 115.91
  Q 137.85 107.97 151.63 101.19
  Q 189.81 82.43 230.23 69.31
  C 255.20 61.20 280.60 52.96 306.18 46.97
  Q 306.71 46.84 307.05 47.27
  C 312.18 53.63 315.00 61.90 319.85 68.48
  C 355.46 116.76 418.08 142.79 477.00 140.29
  Z"
/>
<path fill="#ffffff" d="
  M 631.50 47.46
  L 628.04 48.00
  Q 629.33 46.20 631.50 47.46
  Z"
/>
<path fill="#ffffff" d="
  M 351.25 47.54
  L 346.19 48.28
  Q 348.21 46.31 351.25 47.54
  Z"
/>
<path fill="#2986cc" d="
  M 351.25 47.54
  L 354.75 48.04
  Q 356.52 49.81 358.75 48.54
  L 362.75 49.04
  Q 364.21 50.90 365.75 49.29
  L 394.75 53.04
  Q 396.50 54.97 398.25 53.29
  L 403.75 54.04
  Q 405.51 55.83 407.75 54.54
  L 411.75 55.04
  Q 413.82 56.73 416.25 55.46
  L 421.75 56.04
  Q 423.94 58.03 426.25 56.29
  L 431.75 57.04
  Q 433.92 59.05 436.25 57.29
  L 444.93 58.15
  Q 448.58 60.04 452.28 58.31
  Q 467.36 59.19 482.50 58.29
  Q 486.73 59.50 491.03 58.31
  L 498.25 57.54
  Q 501.31 58.60 504.25 57.29
  L 510.71 56.50
  Q 513.07 57.46 515.00 56.04
  L 519.75 55.54
  Q 521.89 56.58 523.75 55.21
  L 529.21 54.50
  Q 531.40 55.53 533.21 54.00
  L 580.00 48.29
  Q 582.08 49.67 584.00 48.04
  L 588.74 47.64
  Q 591.61 47.39 589.84 49.66
  C 579.71 62.72 568.07 73.44 553.89 82.24
  C 535.94 93.38 513.59 104.20 492.31 106.31
  Q 472.13 108.32 449.25 106.75
  C 422.18 104.89 395.54 91.64 373.44 76.31
  Q 367.32 72.06 362.74 67.73
  Q 359.13 63.07 354.46 59.50
  Q 349.85 54.73 346.19 48.28
  L 351.25 47.54
  Z"
/>
<path fill="#ffffff" d="
  M 354.75 48.04
  L 358.75 48.54
  Q 356.52 49.81 354.75 48.04
  Z"
/>
<path fill="#ffffff" d="
  M 584.00 48.04
  Q 582.08 49.67 580.00 48.29
  L 584.00 48.04
  Z"
/>
<path fill="#ffffff" d="
  M 362.75 49.04
  L 365.75 49.29
  Q 364.21 50.90 362.75 49.04
  Z"
/>
<path fill="#ffffff" d="
  M 394.75 53.04
  L 398.25 53.29
  Q 396.50 54.97 394.75 53.04
  Z"
/>
<path fill="#ffffff" d="
  M 403.75 54.04
  L 407.75 54.54
  Q 405.51 55.83 403.75 54.04
  Z"
/>
<path fill="#ffffff" d="
  M 533.21 54.00
  Q 531.40 55.53 529.21 54.50
  L 533.21 54.00
  Z"
/>
<path fill="#ffffff" d="
  M 411.75 55.04
  L 416.25 55.46
  Q 413.82 56.73 411.75 55.04
  Z"
/>
<path fill="#ffffff" d="
  M 523.75 55.21
  Q 521.89 56.58 519.75 55.54
  L 523.75 55.21
  Z"
/>
<path fill="#ffffff" d="
  M 421.75 56.04
  L 426.25 56.29
  Q 423.94 58.03 421.75 56.04
  Z"
/>
<path fill="#ffffff" d="
  M 515.00 56.04
  Q 513.07 57.46 510.71 56.50
  L 515.00 56.04
  Z"
/>
<path fill="#ffffff" d="
  M 431.75 57.04
  L 436.25 57.29
  Q 433.92 59.05 431.75 57.04
  Z"
/>
<path fill="#ffffff" d="
  M 504.25 57.29
  Q 501.31 58.60 498.25 57.54
  Q 501.23 56.90 504.25 57.29
  Z"
/>
<path fill="#ffffff" d="
  M 444.93 58.15
  L 452.28 58.31
  Q 448.58 60.04 444.93 58.15
  Z"
/>
<path fill="#ffffff" d="
  M 491.03 58.31
  Q 486.73 59.50 482.50 58.29
  L 491.03 58.31
  Z"
/>
<path fill="#ffffff" d="
  M 362.74 67.73
  Q 357.97 64.23 354.46 59.50
  Q 359.13 63.07 362.74 67.73
  Z"
/>
<path fill="#ffffff" d="
  M 481.75 140.04
  Q 479.48 141.60 477.00 140.29
  L 481.75 140.04
  Z"
/>
<path fill="#ffffff" d="
  M 203.04 303.98
  Q 204.88 307.52 203.29 311.25
  L 203.04 303.98
  Z"
/>
<path fill="#ffffff" d="
  M 765.54 304.75
  Q 766.65 307.04 765.04 309.00
  L 765.54 304.75
  Z"
/>
<path fill="#ffffff" d="
  M 58.29 313.75
  Q 59.39 315.05 58.04 316.25
  L 58.29 313.75
  Z"
/>
<path fill="#ffffff" d="
  M 764.29 317.25
  Q 765.56 319.77 764.04 322.25
  L 764.29 317.25
  Z"
/>
<path fill="#ffffff" d="
  M 171.54 318.25
  L 171.69 335.02
  Q 170.26 326.63 171.54 318.25
  Z"
/>
<path fill="#ffffff" d="
  M 731.85 318.98
  L 731.54 334.50
  Q 730.21 326.70 731.85 318.98
  Z"
/>
<path fill="#ffffff" d="
  M 57.54 319.50
  Q 58.85 321.88 56.79 323.50
  L 57.54 319.50
  Z"
/>
<path fill="#ffffff" d="
  M 204.34 322.95
  Q 205.56 331.08 204.29 339.25
  L 204.34 322.95
  Z"
/>
<path fill="#ffffff" d="
  M 879.54 324.75
  L 879.96 327.75
  Q 878.20 326.58 879.54 324.75
  Z"
/>
<path fill="#ffffff" d="
  M 763.47 343.49
  Q 764.76 362.01 763.22 380.52
  Q 762.66 361.99 763.47 343.49
  Z"
/>
<path fill="#ffffff" d="
  M 730.71 358.75
  C 731.73 359.80 730.77 398.83 730.71 403.50
  L 730.32 402.62
  Q 730.14 402.21 730.14 401.75
  Q 730.39 380.83 730.02 359.92
  C 730.02 359.45 730.34 359.00 730.71 358.75
  Z"
/>
<path fill="#ffffff" d="
  M 204.98 367.96
  Q 206.09 368.09 206.08 368.75
  C 205.48 391.40 206.61 411.14 205.29 429.75
  L 204.98 367.96
  Z"
/>
<path fill="#ffffff" d="
  M 172.54 368.25
  Q 173.15 390.11 172.68 412.01
  Q 171.17 390.14 172.54 368.25
  Z"
/>
<path fill="#ffffff" d="
  M 885.71 371.50
  L 886.00 375.46
  Q 884.20 373.57 885.71 371.50
  Z"
/>
<path fill="#ffffff" d="
  M 50.29 373.50
  Q 51.73 375.48 50.00 377.21
  L 50.29 373.50
  Z"
/>
<path fill="#ffffff" d="
  M 886.54 379.75
  L 886.96 384.25
  Q 885.09 382.18 886.54 379.75
  Z"
/>
<path fill="#ffffff" d="
  M 887.71 389.50
  L 887.96 393.25
  Q 886.23 391.41 887.71 389.50
  Z"
/>
<path fill="#ffffff" d="
  M 888.46 398.00
  L 889.00 403.21
  Q 887.19 400.81 888.46 398.00
  Z"
/>
<path fill="#ffffff" d="
  M 889.54 408.50
  L 889.96 412.75
  Q 888.39 410.89 889.54 408.50
  Z"
/>
<path fill="#ffffff" d="
  M 890.54 419.25
  L 890.96 425.25
  Q 889.01 422.43 890.54 419.25
  Z"
/>
<path fill="#ffffff" d="
  M 45.29 421.50
  Q 46.89 424.56 45.04 427.50
  L 45.29 421.50
  Z"
/>
<path fill="#ffffff" d="
  M 294.25 946.96
  L 289.00 946.29
  Q 291.91 945.26 294.25 946.96
  Z"
/>
<path fill="#ffffff" d="
  M 380.83 955.70
  Q 376.84 956.16 372.96 955.50
  Q 376.94 954.15 380.83 955.70
  Z"
/>
<path fill="#ffffff" d="
  M 546.79 955.50
  L 540.75 955.96
  Q 543.60 954.16 546.79 955.50
  Z"
/>
<path fill="#ffffff" d="
  M 410.54 956.69
  L 395.75 956.54
  Q 403.18 955.33 410.54 956.69
  Z"
/>
<path fill="#ffffff" d="
  M 528.50 956.54
  L 515.74 956.73
  Q 522.08 955.37 528.50 956.54
  Z"
/>
</svg>
